<svg version="1.0" xmlns="http://www.w3.org/2000/svg" width="429" height="603" viewBox="0 0 4290 6030"><path d="M2466 6020c-290-46-545-207-769-484-100-125-279-398-323-491-108-234-174-596-174-952 0-245 22-346 114-518 78-148 205-296 345-405 41-32 71-63 71-73 0-34-71-191-204-452-73-143-143-276-154-295l-21-36-109 2-108 1-79 46c-103 59-185 80-305 81-87 1-99-1-148-28-77-43-206-182-245-264-31-65-32-71-31-197 0-109 4-140 23-190 12-33 24-67 27-76 4-12-17-22-105-49-128-38-171-68-215-150-39-72-56-141-56-235 0-283 168-453 475-480l80-7-37-76c-101-206-89-377 40-539C641 49 747 0 891 0c152 0 276 55 385 171l50 54 40-38c84-81 212-123 349-114 264 17 431 209 441 506l3 104 43 24c67 38 137 112 169 178 25 52 29 72 29 145 0 96-18 179-56 257-23 48-75 105-106 115-10 4-9 9 4 24 26 29 64 122 78 188 17 81 6 152-38 238-44 90-158 208-219 229l-41 14 190 355c104 195 191 356 193 358 1 1 40-8 86-22 130-37 249-50 411-43 246 10 328 38 518 180 132 99 361 330 436 442 175 259 327 559 373 741 27 102 56 412 55 584 0 158-19 240-88 386-85 178-187 304-377 463-341 285-575 403-918 462-134 23-350 32-435 19z" fill="#b25653"/><g fill="#cc7270"><path d="M2466 6020c-290-46-545-207-769-484-100-125-279-398-323-491-108-234-174-596-174-952 0-245 22-346 114-518 78-148 205-296 345-405 41-32 71-63 71-73 0-34-71-192-205-452-73-143-143-279-156-302-17-30-21-45-13-53 6-6 68-17 139-26l129-15 115-64c148-81 189-97 241-93l42 3 190 355c104 195 191 356 193 358 1 1 40-8 86-22 130-37 249-50 411-43 246 10 328 38 518 180 132 99 361 330 436 442 175 259 327 559 373 741 27 102 56 412 55 584 0 158-19 240-88 386-85 178-187 304-377 463-341 285-575 403-918 462-134 23-350 32-435 19zm1356-1011c78-17 147-51 201-99 96-85 120-169 93-324-26-147-87-228-190-251-49-11-50-12-53-50-6-100-84-327-145-425-17-26-21-47-19-85 5-96-38-213-116-316-66-85-179-159-245-159-48 0-30 28 33 54 69 28 90 44 160 123 53 59 102 158 123 246 10 41-4 32-59-38-53-69-90-100-105-90-20 12-9 35 43 92 69 76 118 151 178 273 84 172 122 308 100 358-11 22-10 28 5 39 10 7 30 13 45 13 33 0 86 23 120 52 70 61 110 238 78 352-10 36-98 136-120 136-5 0-32 11-61 24-161 74-291 38-376-105-33-54-53-119-53-166-1-82 57-194 109-214 15-6 29-13 32-17s18-13 33-20c37-16 33-48-6-45-23 2-30-5-53-52-34-69-106-159-241-302-106-111-143-135-143-92 0 14 35 57 96 119l95 97-42 17c-55 22-125 22-191 1-72-24-187-139-246-247-31-57-48-78-62-78-31 0-24 28 28 112 81 134 169 220 262 259 54 22 195 18 247-8l41-20 23 31c52 69 92 132 101 159 10 26 7 32-31 68-101 98-126 245-64 378 80 170 204 236 375 200z"/><path d="M675 2421c-58-15-101-44-182-128-56-57-93-106-115-151-31-63-33-72-32-177 0-129 20-208 64-259l30-34-105-36c-58-20-110-36-116-36-29 0-91-48-123-94-54-79-71-137-71-246 0-278 186-452 487-454 54-1 98-4 98-7 0-4-7-12-15-19s-15-17-15-22-9-21-20-35c-10-13-34-61-51-106-28-70-32-95-33-172-1-83 2-95 34-159C621 64 832-25 1063 54c83 28 202 121 240 189l21 37 28-35c41-49 123-101 199-126 52-17 82-20 160-16 82 3 106 9 167 37 164 75 254 240 256 468l1 93 44 22c64 32 133 97 165 157 71 130 28 373-82 473-23 20-47 37-52 37-17 0-11 17 19 62 67 100 90 242 54 338-35 94-152 239-185 228-7-3-27 1-44 8-52 22-156 27-279 14-97-10-119-9-126 2-16 25 16 37 121 46l105 8-70 36c-38 20-99 52-135 71-55 30-80 37-170 46-195 20-316 19-371-3-100-40-175-118-198-204-7-26-18-42-27-42-24 0-27 26-8 85 21 69 101 153 177 188l52 23-30 17c-178 98-316 133-420 108zm1013-956c41-13 52-20 52-37 0-18-4-19-32-14-97 20-153 18-203-5-69-32-155-121-185-191-17-39-31-58-42-58-50 0 9 128 98 216 94 92 199 122 312 89zm249-137c64-73 93-190 74-309-20-132-37-172-94-226-72-68-147-97-254-97l-83-1v-41c0-196-167-318-371-270-132 30-240 103-269 180-25 68 18 76 52 10 53-107 254-181 390-144 49 14 125 90 137 138 5 20 12 62 16 93 6 52 5 56-19 67-36 16-116 91-116 109 0 29 30 24 66-12 21-21 62-49 92-63 46-21 65-24 126-20 77 5 118 22 184 75 51 42 76 88 92 171 24 119 1 238-61 314-36 44-1 68 38 26z"/><path d="M344 1778c18-58 37-98 48-98 4 0-3 22-17 50-14 27-25 56-25 64s-4 17-10 21c-5 3-3-14 4-37zM12 1135c0-11 3-29 8-40 11-25 11 1 0 35-6 20-8 21-8 5zm18-72c0-21 66-118 103-154 48-47 134-93 209-113 71-18 218-31 218-19 0 6-43 13-95 16-114 7-217 41-285 96-58 46-74 65-111 129-30 50-39 61-39 45zm422-683c0-8 4-26 8-40 6-20 8-21 8-5 0 11-3 29-8 40-5 12-8 14-8 5zm18-75c0-16 54-108 89-152C628 65 752-2 839 1c30 1 26 3-25 14-33 6-82 22-109 35-65 31-152 121-193 198-30 56-42 72-42 57zm860-75c0-19 73-79 133-110 32-16 83-34 115-41 70-14 202-6 257 15 22 9 29 14 15 11-109-23-172-28-236-17-83 14-196 67-247 117-20 20-37 31-37 25zM1065 35c-25-12-26-14-5-9 28 7 60 23 45 23-5 0-23-6-40-14zM945 10l-30-8h35c19 0 46 4 60 8 24 8 24 8-5 8-16 0-43-4-60-8z"/></g><path d="M2466 6020c-290-46-545-207-769-484-100-125-279-398-323-491-108-234-174-596-174-952 0-245 22-346 114-518 78-148 205-296 345-405 41-32 71-63 71-73 0-34-71-192-205-452-73-143-143-279-156-302-16-28-21-45-14-52 6-5 66-15 134-22l123-13 126-68c140-77 204-101 252-96 32 3 36 11 222 358 104 195 191 356 193 358 1 1 40-8 86-22 130-37 249-50 411-43 246 10 328 38 518 180 132 99 361 330 436 442 175 259 327 559 373 741 27 102 56 412 55 584 0 158-19 240-88 386-85 178-187 304-377 463-341 285-575 403-918 462-134 23-350 32-435 19zm1371-1014c125-33 219-100 264-187 59-116 20-339-75-431-35-34-53-44-120-64-27-8-30-13-34-64-5-71-51-208-111-335-44-90-49-108-53-185-4-75-9-96-46-171-55-114-152-214-246-254-36-15-72-25-81-21-30 11-11 38 42 58 59 22 144 94 196 166 38 52 87 167 87 204 0 19-7 15-47-32-88-101-116-119-130-84-4 10 13 35 49 72 74 76 118 143 189 287 72 146 119 313 99 351-16 30 1 54 38 54 86 0 168 67 197 162 9 29 19 88 22 130 5 70 3 82-22 134-22 45-39 64-87 94-215 140-405 90-488-128-24-63-25-111-5-179 22-74 53-112 120-149 67-36 82-69 32-69-24 0-32-8-53-50-14-27-43-73-65-102-62-83-290-324-303-320-6 2-12 14-14 26-3 17 20 46 93 120l96 98-41 17c-59 24-145 21-205-8-91-42-164-121-258-281-27-46-49-54-55-22-6 30 80 169 149 242 86 90 155 126 254 133 54 3 84-1 129-17 71-25 70-25 137 77 68 103 68 107 22 147-24 20-51 59-69 97-24 53-29 76-29 143 0 70 4 89 32 148 40 84 121 168 183 190 56 19 140 21 207 3zM341 1787c-2-17 42-107 51-107 7 0 6 5 0 13-6 7-20 33-31 57-11 25-20 41-20 37zM31 1065c-1-21 62-118 102-156 48-47 134-93 209-113 67-17 218-31 218-20 0 5-33 10-73 12-39 1-94 7-122 13-125 28-255 122-308 224-14 28-26 46-26 40zm439-758c0-18 51-107 89-154C628 65 752-2 839 1c30 1 27 3-19 10-124 21-231 101-306 228-24 41-44 72-44 68zm867-91c16-29 112-94 171-117 42-16 84-22 157-24l100-3-101 7c-118 10-198 40-283 109-29 24-49 37-44 28zM938 3c12-2 30-2 40 0 9 3-1 5-23 4-22 0-30-2-17-4z" fill="#eaaa94"/><path d="M623 2395c-74-37-206-178-246-263-29-61-32-76-31-162 0-117 31-228 74-271 16-16 25-31 22-33-4-2-68-23-142-45-149-46-177-65-224-150-78-144-68-331 25-470 87-130 226-192 429-192h90l-29-42c-157-230-151-444 19-618C694 64 775 30 900 30c154 0 294 71 391 200l35 47 46-47c86-88 223-138 348-127 141 13 233 61 312 165 67 88 92 174 93 317v110l46 26c106 59 171 134 195 222 18 67 17 101-2 195-25 129-61 187-155 253l-23 16 23 24c55 58 95 181 89 274-3 43-13 81-35 126-40 81-139 193-164 186-10-3-36 1-58 9-52 18-139 21-278 11-101-8-114-7-119 8-11 26 11 38 78 42 144 8 144 7 13 79-116 65-116 65-238 79-67 7-174 13-237 12-103-2-120-5-165-29-89-46-141-113-171-215-2-7-13-13-24-13-48 0-4 133 67 202 21 20 62 50 92 66l53 30-71 42c-134 80-319 104-418 55zm1077-928c34-12 51-40 33-58-4-4-28-1-53 7-89 31-187 4-268-76-49-47-102-126-102-151 0-9-7-22-16-29-12-11-18-10-32 3-15 16-14 21 16 83 51 104 139 187 231 220 45 16 145 17 191 1zm243-144c14-16 36-50 49-78 32-71 32-251 0-340-27-73-86-136-167-178-50-25-75-31-147-35l-88-4-5-37c-3-20-8-52-11-71-12-72-68-146-144-186-28-15-56-19-135-19-111 1-172 19-260 77-79 52-131 157-83 166 11 2 22-9 33-32 36-75 141-139 257-158 175-27 288 69 288 243 0 37-4 49-18 53-28 9-111 89-114 111-5 35 31 29 76-13 57-53 93-70 158-78 72-8 161 17 223 64 64 48 80 79 101 185 23 114 9 203-42 279-49 73-28 110 29 51z" fill="#fa9a9d"/><path d="M3560 5658c-424-60-643-158-870-387-215-217-356-470-494-884-94-283-120-423-120-657 0-126 4-180 17-228 9-35 17-83 17-107 0-113 58-311 120-408 28-44 38-77 24-77-3 0-50 33-105 73-195 143-256 171-371 172-70 0-95-10-65-26 9-6 17-19 17-30 0-45-146-356-312-662-51-95-66-132-58-141 5-7 40-16 78-20 37-3 88-8 113-11 45-5 126-39 224-95 28-16 61-34 75-40s35-15 46-21c12-6 45-12 74-13l52-1 190 355c104 195 191 356 193 358 1 1 40-8 86-22 130-37 249-50 411-43 246 10 328 38 518 180 132 99 361 330 436 442 175 259 327 559 373 741 27 102 56 412 55 584 0 158-19 240-88 386-97 205-238 363-510 572-31 24-30 24-126 10zm360-680c90-41 141-84 178-147 25-42 27-55 27-151 0-205-66-312-219-357-25-7-29-13-31-48-4-90-33-176-113-345-40-84-46-106-52-188s-12-103-50-179c-57-115-147-207-242-247-37-16-74-26-82-23-21 8-21 47 0 47 29 0 99 38 148 81 66 58 118 131 150 212 43 108 31 117-42 31-62-74-96-92-109-58-4 10 10 32 39 62 79 83 116 136 177 254 85 165 146 369 118 397-5 5-7 17-5 27 2 13 20 21 72 31 105 19 147 66 180 199 48 187-23 306-219 374-115 40-204 19-283-64-92-98-120-202-82-308 26-74 56-108 128-150 58-33 68-63 20-63-23 0-32-9-53-50-13-27-45-77-70-110-70-94-278-314-295-312-8 1-16 13-18 25-3 18 19 46 93 121l96 98-28 11c-50 19-94 24-149 17-106-13-233-127-310-277-25-50-40-68-54-68-28 0-26 41 5 90 14 22 25 43 25 47 0 18 114 152 159 186 102 78 226 99 333 56l52-20 28 33c27 32 108 159 108 169 0 3-21 27-48 55-59 62-92 142-92 227 0 132 95 283 214 339 33 15 58 18 131 15 77-3 101-9 165-39zM2070 1793c-25-9-58-43-70-74-7-16-19-29-27-29-27 0-65-49-61-79 1-17-4-37-14-48-9-10-20-30-23-45-10-41 39-88 92-88 82 0 150 68 192 191 29 86 27 114-8 150-28 28-49 34-81 22zM390 1182c-24-11-43-32-58-64-41-82-13-132 111-194 154-78 259-78 366 1 74 55 96 87 96 142 0 36-6 49-37 79-29 30-45 38-85 41-44 4-53 1-97-33l-49-37-84 41c-93 47-113 50-163 24zM67 991c44-84 185-181 283-196 32-5 31-4-8 9-120 40-208 103-275 196-17 24-17 24 0-9zm1631 4c-16-14-47-27-75-31-56-8-93-41-93-81 0-35 8-47 50-78 21-15 47-25 69-25 82 0 191 90 191 157 0 74-85 109-142 58zM476 779c6-11 84-12 84-1 0 4-20 8-45 8-24 1-42-2-39-7zm629-56c-51-13-82-72-63-122 28-75 101-113 228-119 85-4 98-2 121 17 54 42 38 120-28 141-21 7-70 30-109 51-67 37-100 44-149 32zm775-298c-93-55-131-67-188-62-31 3-71 8-87 12-61 13-113-61-80-112 46-70 221-85 340-29 94 45 135 81 135 121 0 25-8 40-31 59-35 30-53 32-89 11zm-857-82c-28-15-112-14-244 3-42 5-48 3-68-21-28-36-27-70 3-100 31-30 80-44 191-51 101-7 155 4 197 38 40 34 45 68 14 105-32 38-57 45-93 26zM515 213c58-90 151-171 215-187 14-4 2 6-25 21-78 43-111 71-157 135-44 60-63 78-33 31zm820 5c16-40 186-138 240-137 11 0-5 8-37 18-65 21-117 52-171 100-20 18-35 27-32 19zm283-145c12-2 30-2 40 0 9 3-1 5-23 4-22 0-30-2-17-4zm95 0c9-2 25-2 35 0 9 3 1 5-18 5s-27-2-17-5zM775 10c19-8 73-14 64-6-2 2-22 6-44 9-28 5-34 4-20-3z" fill="#fad7c5"/><path d="M3700 4913c-35-29-39-64-10-93 14-14 27-18 49-14 32 7 94-24 119-58 41-56 106 38 72 103-13 24-112 74-162 82-31 5-43 1-68-20zm-100-1588c-116-118-339-248-471-276-30-6-97-30-149-52-115-49-193-54-274-18-58 25-79 26-100 5-24-23-20-59 8-77 42-28 144-57 199-57 65 0 151 22 216 54 26 14 83 34 127 45 154 38 255 91 437 229 55 42 137 133 137 153 0 16-39 49-58 49-10 0-42-25-72-55zm-1452-416c-10-5-22-27-28-48-10-36-120-244-160-301-30-43-78-144-90-190-6-25-25-69-41-97-16-29-29-64-29-77 0-46 69-88 109-66 27 14 74 103 101 189 13 41 48 113 78 160s65 109 79 136c14 28 36 65 50 83 28 37 55 137 46 171-10 39-77 62-115 40zm-104-1138c-11-10-26-32-33-49s-23-34-35-38c-37-11-56-35-56-71 0-20-8-41-20-53-22-22-26-60-10-90 14-27 71-41 115-29 80 22 152 132 162 249 5 49 3 60-16 79-27 27-80 28-107 2zM376 1169c-39-31-59-76-53-121 7-50 17-61 94-105 118-66 227-88 304-61 52 18 148 87 164 119 69 132-110 252-209 140-27-29-55-26-129 14-76 42-130 46-171 14zm1322-179c-9-13-28-22-61-26-67-9-97-35-97-84 0-32 6-43 33-64 54-41 80-42 152-7 51 25 70 42 91 76 27 47 26 74-4 108-22 25-98 24-114-3zm-595-271c-35-10-63-51-63-90s39-87 92-113c45-23 65-26 149-26 75 0 101 4 113 16 38 37 27 110-17 122-12 3-65 27-116 54-99 50-106 52-158 37zm727-326c-56-32-72-37-125-36-33 0-79 4-101 8-35 6-45 4-63-16-39-42-26-90 33-122 33-17 58-21 126-21 74 0 95 5 160 33 77 34 125 71 135 102 3 10-1 31-9 47-28 54-67 55-156 5zM721 331c-25-25-28-82-6-104 30-30 89-42 217-42 113 0 129 2 155 21 39 29 51 68 32 102-21 39-59 49-106 29-32-14-51-15-123-7-47 5-99 12-117 16-24 5-36 1-52-15z" fill="#fdf9ed"/></svg>