<svg version="1.0" xmlns="http://www.w3.org/2000/svg" width="93.333" height="93.333" viewBox="0 0 70 70"><g fill="#de0000"><path d="M13 9c0 1.4-.7 2-2.2 2-4.2 0-5.2 1.4-4.4 6.1.9 5.9 3 8.7 7.7 10.8 2.2 1 5.2 3.6 7 6 1.7 2.4 4.4 5 6 5.9 2.9 1.7 3.9 5.3 2.1 7.7C28 49.3 21 53 18.9 53c-1.6 0-1.9.7-1.9 5v5h34v-5c0-4.6-.2-5-2.4-5-1.3 0-2.9-.7-3.6-1.5-.7-.8-1.8-1.5-2.6-1.5-2.1 0-4.4-3-4.4-5.9 0-1.9.8-3.2 2.9-4.4 1.6-.9 4.2-3.7 5.7-6.1 1.9-3.1 3.7-4.6 5.7-5 4.5-.9 8.4-5.6 9.2-11 .8-5.2 0-6.6-4.2-6.6-1.6 0-2.3-.6-2.3-2 0-1.9-.7-2-21-2s-21 .1-21 2zm40.4 1.7c-1.7 7.9-2.8 11.3-5.3 16.8-7.4 16.3-20.8 16.9-28.2 1.1-2.8-6.1-6.1-19-5.1-20.1.3-.3 9.2-.5 19.9-.5H54l-.6 2.7zm-38.9 7c2.5 8.5 2.6 9.3 1.1 9.3-3.3 0-6.8-4.4-7.3-9.4-.6-4.7-.6-4.8 2.2-4.4 2.3.2 3 1 4 4.5zm45.2 0c-.5 5.1-4 9.3-7.6 9.3-1.8 0-1.7-.3.3-7 2-6.5 2.3-7 5-7 2.8 0 2.9.1 2.3 4.7zm-23.1 28c.6 2.7 1.8 4.2 3.9 5.3l3 1.5-4.7.3c-2.7.2-6.9.2-9.5 0-4.6-.3-4.7-.4-2.1-1.5 3-1.3 4.8-4.1 4.8-7.2 0-3.8 3.5-2.5 4.6 1.6zM49 58.5v3.6l-15.1-.3-15.2-.3-.3-3.3L18 55h31v3.5z"/><path d="M33 17c-.6 1.1-2 2-3 2-2.4 0-2.6 1.3-.5 3 .9.7 1.3 2.1.9 3.4-.5 2.1-.2 2.2 4.4 2.2 4.4 0 4.8-.2 4.4-2.1-.2-1.2.4-2.7 1.2-3.4 2.3-1.9 2-3.1-.8-3.1-1.6 0-2.7-.7-3.1-2-.3-1.1-1-2-1.5-2s-1.4.9-2 2zm3 2c0 .5.7 1 1.5 1 1.8 0 1.8.1.3 3.1-1.4 2.5-5.8 3.5-5.8 1.3 0-.7-.3-1.9-.6-2.8-.4-1.1-.1-1.6 1-1.6.9 0 1.6-.5 1.6-1 0-.6.5-1 1-1 .6 0 1 .4 1 1z"/></g></svg>