<svg version="1.0" xmlns="http://www.w3.org/2000/svg" width="93.333" height="93.333" viewBox="0 0 70 70"><path d="M26 12.9v5.8l-5 .7c-3.1.4-6 1.6-7.9 3.2-3.3 2.8-5.6 9.2-4.7 13C9 37.7 8.7 38 6 38c-1.6 0-3 .4-3 1 0 .5 1.5 1 3.4 1 2.5 0 3.6.5 4.1 1.9 1.1 3.6 18.7 17.4 24.1 18.9C37.9 61.7 60 44.4 60 41c0-.6 1.6-1 3.5-1s3.5-.5 3.5-1c0-.6-1.2-1-2.8-1-2.6 0-2.7-.2-2.4-4.3.7-8.2-7.1-15.3-15.5-14.3L42 20v-3.6c0-2.1-.4-3.3-1-2.9-.5.3-1 1.9-1 3.4s-1 4.1-2.3 5.8l-2.3 3.1-2.6-2.3c-2-1.7-2.8-3.8-3.8-9.4-.6-3.9-1.6-7.1-2.1-7.1s-.9 2.6-.9 5.9zm-1.2 16.3l-.3 8.3-7.2.3-7.3.3V34c0-7.7 4.7-12.9 11.8-13h3.3l-.3 8.2zm32.4-4.3C59.5 27.4 60 29 60 33v5h-5.9c-5.1 0-6.2.3-7.9 2.5-1.1 1.3-2.2 2.1-2.6 1.8-.9-.9-.8-19.8.2-20.7.4-.4 2.9-.6 5.6-.3 4 .3 5.5 1.1 7.8 3.6zm-26.8 7.8c.9 6 1.9 12.9 2.2 15.5 1.2 8.9 2.3 6.2 5.9-14.2.8-4.7 1.6-9 1.6-9.5.3-2.2 1.7 10.4 1.8 16.2.1 3.5.4 6.3.9 6.3.4 0 1.8-1.6 3.1-3.5 2.2-3.3 2.7-3.5 7.8-3.5 4.9 0 5.3.2 4.4 1.8-1.5 2.8-8.8 8.9-16.3 13.7l-6.6 4.2-8.9-5.7C18.1 48.7 12 43.1 12 40.9c0-.5 3.1-.9 6.9-.9h6.9l.7-9c.4-5 1.1-9 1.5-9 .4 0 1.5 4.8 2.4 10.7zm6-5.6c1.2-1 1.6-1 1.6-.1 0 2-3.2 19.1-3.6 18.8-.4-.5-3.4-18.1-3.4-20.3 0-1.8.2-1.8 1.9.5 1.6 2 2.1 2.2 3.5 1.1z" fill="#de0000"/></svg>