<svg version="1.0" xmlns="http://www.w3.org/2000/svg" width="93.333" height="93.333" viewBox="0 0 70 70"><path d="M9.2 16C5.3 20 2 23.9 2 24.9c0 .9 1.9 3.5 4.3 5.7 7.5 7.2 28.1 24 31.6 25.8 5.3 2.8 13.2 3.1 22.2 1.1l7.9-1.8v-3.4c0-4.5-3.4-7.8-9-8.7-6.7-1.1-9.7-3.4-15.7-12.4-6.6-9.9-8.1-10.9-11.6-8.1l-2.6 2-3.1-2.8c-1.7-1.5-3.8-5-4.8-7.8-1-2.7-2.5-5.1-3.3-5.3-.8-.1-4.7 2.9-8.7 6.8zm10.3-1.3c.5 2.7 2.4 5.5 6.5 9.8 3.2 3.3 7.8 8.1 10.2 10.6 3.5 3.7 5.7 5 12.3 7.2 4.4 1.4 9.7 2.9 11.8 3.2 2 .4 3.7 1.2 3.7 1.7 0 .7-3.1.9-8.9.6-10.3-.6-15.3-2.6-22.5-9-7.7-6.7-18.4-23.2-17.2-26.4 1.1-2.7 3.4-1.4 4.1 2.3zm-3 5.5c6.3 12.1 16 22.3 25.3 26.5 4.7 2.2 7.1 2.7 14.9 2.7 10.9.1 10 1.7-1.3 2.4-9.4.6-14.4-1.1-23.6-8.2C17.7 32.9 16.9 32 15 25c-.9-3.6-2-7.3-2.4-8.3-.5-1-.4-1.7.2-1.7.5 0 2.2 2.4 3.7 5.2zm-3.9 1.4c.8 2 1.4 4.5 1.2 5.6-.3 1.7-.7 1.5-4.2-1.7-3.8-3.4-3.8-3.6-2.1-5.5 2.5-2.8 3.4-2.5 5.1 1.6zm23 26.6c7.2 4.9 14.3 6.4 23.1 4.8 4.5-.7 6.9-.8 7.6-.1 3 3-20 5.5-26.3 2.9-3.2-1.4-32.7-25.3-35.8-29.1-.8-.9-1.1-2.1-.8-2.6.4-.6 6.5 3.8 13.7 9.7 7.2 5.9 15.5 12.4 18.5 14.4zm.9-24.3c.6 1.1-3.3 2.6-4.3 1.6-.4-.3 0-1 .8-1.5 1.9-1.2 2.7-1.2 3.5-.1zm1.8 3.8c-1.8.7-1.6 2.3.2 2.3.9 0 1.2.6.9 1.5-.4 1 0 1.5 1.2 1.5 1.6 0 1.7.2.4 1-1.2.8-1.1 1 .6 1 1.2 0 2.9 1.2 3.9 2.6 1.6 2.6 1.6 2.6-.7 1.9-3.3-1-8.6-5.4-11-9.3l-2-3.2 3.9.1c2.1 0 3.2.3 2.6.6z" fill="#de0000"/></svg>